<svg width="16" height="14" viewBox="0 0 16 14" fill="none" xmlns="http://www.w3.org/2000/svg">
<path fill-rule="evenodd" clip-rule="evenodd" d="M9.01817 1.2197C9.68802 0.581776 10.5965 0.223389 11.5438 0.223389C12.491 0.223389 13.3995 0.581776 14.0694 1.2197C14.7392 1.85764 15.1155 2.72286 15.1155 3.62504C15.1155 4.52721 14.7392 5.39243 14.0694 6.03035L10.922 9.0278C10.5927 9.34715 10.1999 9.60095 9.76661 9.77435C9.33191 9.94835 8.86524 10.0379 8.39376 10.0379C7.92228 10.0379 7.45561 9.94835 7.02091 9.77435C6.58629 9.60043 6.19246 9.34565 5.86251 9.02495C5.55813 8.72908 5.56322 8.25418 5.87388 7.9643C6.18454 7.67443 6.68315 7.6793 6.98752 7.97518C7.17085 8.1533 7.38962 8.2949 7.63107 8.3915C7.87251 8.48818 8.13184 8.5379 8.39376 8.5379C8.65568 8.5379 8.91501 8.48818 9.15645 8.3915C9.3979 8.2949 9.61667 8.1533 9.8 7.97518L9.80567 7.9697L12.9557 4.9697C13.3301 4.61308 13.5405 4.12939 13.5405 3.62504C13.5405 3.12069 13.3301 2.63699 12.9557 2.28037C12.5812 1.92374 12.0734 1.72339 11.5438 1.72339C11.0142 1.72339 10.5063 1.92374 10.1319 2.28037L9.7381 2.65537C9.43058 2.94826 8.93194 2.94826 8.62442 2.65537C8.3169 2.36247 8.3169 1.8876 8.62442 1.5947L9.01817 1.2197Z" fill="white"/>
<path fill-rule="evenodd" clip-rule="evenodd" d="M6.23343 4.22564C6.6681 4.05169 7.13478 3.9621 7.60625 3.9621C8.07773 3.9621 8.5444 4.05169 8.9791 4.22564C9.41372 4.39958 9.80755 4.65437 10.1375 4.97509C10.4419 5.27096 10.4368 5.74578 10.1262 6.03573C9.8155 6.3256 9.31686 6.32073 9.01249 6.02485C8.82916 5.84673 8.61039 5.70513 8.36895 5.60853C8.1275 5.51185 7.86817 5.4621 7.60625 5.4621C7.34433 5.4621 7.08501 5.51185 6.84356 5.60853C6.60211 5.70513 6.38331 5.84673 6.2 6.02485L6.19437 6.03033L3.04435 9.03033C2.66989 9.38695 2.45952 9.87063 2.45952 10.375C2.45952 10.8793 2.66989 11.3631 3.04435 11.7197C3.41881 12.0763 3.92668 12.2766 4.45625 12.2766C4.98582 12.2766 5.4937 12.0763 5.86815 11.7197L6.2619 11.3447C6.56943 11.0517 7.06807 11.0517 7.37559 11.3447C7.68311 11.6376 7.68311 12.1125 7.37559 12.4053L6.98184 12.7803C6.31202 13.4183 5.40354 13.7766 4.45625 13.7766C3.50897 13.7766 2.60048 13.4183 1.93065 12.7803C1.26083 12.1424 0.884521 11.2772 0.884521 10.375C0.884521 9.47283 1.26083 8.60755 1.93065 7.96968L5.07797 4.97221C5.40732 4.65284 5.80009 4.39905 6.23343 4.22564Z" fill="white"/>
</svg>
