<svg width="16" height="16" viewBox="0 0 16 16" fill="none" xmlns="http://www.w3.org/2000/svg">
<path d="M15.6065 3.18217C15.5378 2.5609 15.2471 1.98095 14.7832 1.53928C14.3193 1.09762 13.7103 0.821028 13.0579 0.755752C9.69679 0.412552 6.30679 0.412552 2.94568 0.755752C2.29268 0.820293 1.68279 1.09656 1.21816 1.53829C0.753532 1.98002 0.462379 2.56038 0.393465 3.18217C0.0346165 6.38473 0.0346165 9.61456 0.393465 12.8171C0.463002 13.4382 0.753864 14.0178 1.2176 14.4595C1.68135 14.9011 2.28997 15.1782 2.9421 15.2444C6.30321 15.5876 9.69321 15.5876 13.0543 15.2444C13.7071 15.1789 14.3165 14.9022 14.781 14.4605C15.2455 14.0188 15.5368 13.4387 15.6065 12.8171C15.9654 9.61456 15.9654 6.38473 15.6065 3.18217ZM12.4503 10.6822C12.2212 10.7129 11.1008 10.6822 11.0426 10.6822C10.7523 10.6853 10.4724 10.579 10.2641 10.3864C10.0278 10.1691 9.81662 9.93047 9.58574 9.70462C9.5177 9.63529 9.44377 9.57144 9.3647 9.51371C9.18036 9.37905 8.9978 9.40973 8.91099 9.61683C8.84317 9.84063 8.79587 10.0696 8.7696 10.3012C8.75439 10.51 8.61479 10.6421 8.3678 10.6558C8.21477 10.6643 8.06175 10.6668 7.91051 10.6634C7.35928 10.6598 6.81678 10.5319 6.32746 10.2901C5.79797 10.0094 5.3366 9.62549 4.97349 9.16342C4.3766 8.43729 3.89963 7.63956 3.47366 6.81712C3.45129 6.77535 3.01459 5.89155 3.00385 5.84893C2.96447 5.71001 3.00385 5.57621 3.12466 5.52933C3.20162 5.50121 4.6406 5.52933 4.66476 5.52933C4.77178 5.52877 4.87623 5.56057 4.96307 5.62015C5.04991 5.67972 5.11466 5.76401 5.148 5.86087C5.414 6.50955 5.7782 7.11769 6.22902 7.66598C6.29214 7.73903 6.36598 7.80304 6.44827 7.85604C6.5655 7.93274 6.67646 7.90632 6.72479 7.77677C6.78212 7.59823 6.81579 7.41356 6.82501 7.22706C6.83307 6.85717 6.82501 6.61427 6.80354 6.24439C6.78922 6.00746 6.70152 5.80035 6.33462 5.73302C6.22186 5.71342 6.21202 5.62479 6.2845 5.53615C6.43574 5.35291 6.64246 5.32308 6.87423 5.31285C7.21966 5.29325 7.56508 5.30604 7.91051 5.31285H7.98568C8.13601 5.31163 8.28603 5.32592 8.43312 5.35547C8.52005 5.37264 8.59888 5.41595 8.658 5.47902C8.71713 5.54208 8.75343 5.62156 8.76155 5.70575C8.77932 5.79907 8.78681 5.8939 8.78392 5.98871C8.77497 6.39183 8.75439 6.79581 8.74991 7.19893C8.74575 7.35889 8.76107 7.51876 8.79555 7.67535C8.84477 7.89098 8.99959 7.94382 9.15351 7.78871C9.35298 7.58893 9.53579 7.37464 9.70028 7.1478C9.99165 6.73343 10.2319 6.28844 10.4162 5.82166C10.5164 5.58217 10.5952 5.52933 10.8636 5.52933H12.3903C12.4811 5.52781 12.5716 5.53931 12.6588 5.56342C12.6896 5.57115 12.7185 5.58485 12.7435 5.60369C12.7686 5.62253 12.7893 5.64608 12.8043 5.67288C12.8193 5.69969 12.8284 5.72916 12.8309 5.75945C12.8334 5.78974 12.8294 5.82021 12.819 5.84893C12.7438 6.16854 12.563 6.43956 12.3715 6.70121C12.061 7.11967 11.7335 7.52791 11.4158 7.94126C11.3754 7.99584 11.3386 8.05277 11.3057 8.11172C11.1858 8.31712 11.1947 8.43217 11.3684 8.60263C11.6458 8.8745 11.942 9.12848 12.2095 9.40802C12.4058 9.61141 12.5831 9.83071 12.7393 10.0634C12.9353 10.3532 12.8145 10.6293 12.4494 10.6788L12.4503 10.6822Z" fill="white"/>
</svg>
