<svg width="14" height="14" viewBox="0 0 14 14" fill="none" xmlns="http://www.w3.org/2000/svg">
<path d="M6.99994 0C3.14018 0 0 3.14018 0 6.99994C0 10.8598 3.14011 14 6.99987 14C10.8597 14 13.9998 10.8598 13.9998 6.99994C13.9999 3.14018 10.8598 0 6.99994 0ZM6.99994 13.0418C3.66856 13.0418 0.958312 10.3314 0.958312 6.99994C0.958248 3.66856 3.66856 0.958248 6.99994 0.958248C10.3313 0.958248 13.0416 3.66856 13.0416 6.99994C13.0416 10.3314 10.3313 13.0418 6.99994 13.0418Z" fill="#696E82"/>
<path d="M10.6117 6.90648H7.28649V3.27395C7.28649 3.00935 7.07204 2.79483 6.80737 2.79483C6.54277 2.79483 6.32825 3.00935 6.32825 3.27395V7.3856C6.32825 7.65021 6.54277 7.86473 6.80737 7.86473H10.6117C10.8763 7.86473 11.0908 7.65021 11.0908 7.3856C11.0908 7.121 10.8763 6.90648 10.6117 6.90648Z" fill="#696E82"/>
</svg>
