<svg width="32" height="18" viewBox="0 0 32 18" fill="none" xmlns="http://www.w3.org/2000/svg">
<path fill-rule="evenodd" clip-rule="evenodd" d="M0 1C0 0.447715 0.397969 0 0.888889 0H31.1111C31.602 0 32 0.447715 32 1C32 1.55228 31.602 2 31.1111 2H0.888889C0.397969 2 0 1.55228 0 1Z" fill="white"/>
<path fill-rule="evenodd" clip-rule="evenodd" d="M0 9C0 8.44772 0.397969 8 0.888889 8H31.1111C31.602 8 32 8.44772 32 9C32 9.55228 31.602 10 31.1111 10H0.888889C0.397969 10 0 9.55228 0 9Z" fill="white"/>
<path fill-rule="evenodd" clip-rule="evenodd" d="M0 17C0 16.4477 0.397969 16 0.888889 16H31.1111C31.602 16 32 16.4477 32 17C32 17.5523 31.602 18 31.1111 18H0.888889C0.397969 18 0 17.5523 0 17Z" fill="white"/>
</svg>
