<svg width="10" height="16" viewBox="0 0 10 16" fill="none" xmlns="http://www.w3.org/2000/svg">
<path d="M6.5993 11.5519L8.8105 13.6866C9.26349 14.1229 9.26349 14.8316 8.8105 15.2684C8.35799 15.7052 7.62455 15.7052 7.17251 15.2684L4.99846 13.1707L2.8263 15.2684C2.59981 15.4866 2.30303 15.5958 2.00624 15.5958C1.70993 15.5958 1.41362 15.4866 1.18713 15.2684C0.734616 14.8316 0.734616 14.1234 1.18666 13.6866L3.3981 11.5519C2.59295 11.3748 1.81643 11.0669 1.10122 10.6337C0.559953 10.3043 0.397361 9.61413 0.738402 9.0912C1.0785 8.56758 1.79371 8.40995 2.33592 8.73938C3.95522 9.72265 6.04123 9.72288 7.66147 8.73938C8.20368 8.40995 8.91866 8.56758 9.25947 9.0912C9.60051 9.61367 9.43744 10.3043 8.89618 10.6337C8.18096 11.0673 7.40445 11.3748 6.5993 11.5519Z" fill="white"/>
<path fill-rule="evenodd" clip-rule="evenodd" d="M1.03346 4.61832C1.03346 6.7233 2.80754 8.43556 4.98893 8.43556C7.17079 8.43556 8.94439 6.7233 8.94439 4.61832C8.94439 2.51265 7.17079 0.799927 4.98893 0.799927C2.80754 0.799927 1.03346 2.51265 1.03346 4.61832ZM6.62662 4.61791C6.62662 3.74613 5.892 3.03723 4.98886 3.03723C4.08644 3.03723 3.35111 3.74613 3.35111 4.61791C3.35111 5.48901 4.08644 6.19836 4.98886 6.19836C5.892 6.19836 6.62662 5.48901 6.62662 4.61791Z" fill="white"/>
</svg>
