<svg width="15" height="12" viewBox="0 0 15 12" fill="none" xmlns="http://www.w3.org/2000/svg">
<path fill-rule="evenodd" clip-rule="evenodd" d="M14.825 1.10405C14.7478 1.43027 14.6674 1.75583 14.5939 2.08282C14.1189 4.19736 13.6454 6.31222 13.1712 8.42694C12.9669 9.33769 12.7642 10.2488 12.5552 11.1585C12.528 11.2767 12.4796 11.3942 12.4199 11.5013C12.2602 11.7874 11.9971 11.8954 11.6733 11.7988C11.5257 11.7547 11.377 11.6903 11.2522 11.6042C10.1958 10.8751 9.14475 10.1388 8.092 9.40472C8.0539 9.37815 8.01483 9.35278 7.96938 9.32227C7.93445 9.3507 7.90143 9.37505 7.87132 9.40239C7.32782 9.89564 6.78425 10.3888 6.24167 10.8831C6.08002 11.0303 5.89606 11.1189 5.65429 11.1056C5.6743 10.8209 5.69266 10.5453 5.71325 10.2699C5.75637 9.69325 5.8006 9.11667 5.84452 8.54002C5.85145 8.44925 5.87632 8.35629 5.8638 8.26811C5.81651 7.93563 6.01275 7.7429 6.25246 7.53942C8.20128 5.88474 10.1407 4.22003 12.083 2.55828C12.1114 2.53393 12.1483 2.5134 12.1651 2.483C12.1959 2.42723 12.2146 2.3654 12.2383 2.30609C12.1728 2.28856 12.1003 2.24504 12.0431 2.25889C11.9252 2.28736 11.8071 2.33351 11.7038 2.39493C9.17226 3.90077 6.64257 5.40942 4.11314 6.91851C4.04209 6.9609 3.9811 6.98434 3.88989 6.95693C2.81678 6.63425 1.74127 6.31893 0.668244 5.99595C0.538425 5.95688 0.409218 5.89848 0.298146 5.82408C0.0893566 5.68424 0.0642192 5.47952 0.251009 5.31421C0.38783 5.19311 0.553499 5.08565 0.7264 5.02021C1.63047 4.67803 2.54069 4.35068 3.4492 4.01914C6.90052 2.75983 10.3518 1.50048 13.8042 0.243685C13.914 0.203696 14.0338 0.177377 14.1508 0.16881C14.4614 0.146137 14.6918 0.306202 14.7867 0.593708C14.7979 0.627573 14.8121 0.660563 14.825 0.693954V1.10405Z" fill="white"/>
</svg>
