<svg xmlns="http://www.w3.org/2000/svg">
  <symbol viewbox="0 0 14 14" fill="none" id="icon-clock">
    <path d="M6.99994 0C3.14018 0 0 3.14018 0 6.99994C0 10.8598 3.14011 14 6.99987 14C10.8597 14 13.9998 10.8598 13.9998 6.99994C13.9999 3.14018 10.8598 0 6.99994 0ZM6.99994 13.0418C3.66856 13.0418 0.958312 10.3314 0.958312 6.99994C0.958248 3.66856 3.66856 0.958248 6.99994 0.958248C10.3313 0.958248 13.0416 3.66856 13.0416 6.99994C13.0416 10.3314 10.3313 13.0418 6.99994 13.0418Z" fill="#696E82"></path>
    <path d="M10.6117 6.90648H7.28649V3.27395C7.28649 3.00935 7.07204 2.79483 6.80737 2.79483C6.54277 2.79483 6.32825 3.00935 6.32825 3.27395V7.3856C6.32825 7.65021 6.54277 7.86473 6.80737 7.86473H10.6117C10.8763 7.86473 11.0908 7.65021 11.0908 7.3856C11.0908 7.121 10.8763 6.90648 10.6117 6.90648Z" fill="#696E82"></path>
  </symbol>
  <symbol viewbox="0 0 16 16" fill="none" id="icon-eye">
    <path d="M8 6.00103C7.48665 5.98377 6.98783 6.18451 6.61292 6.55923C6.23801 6.93395 6.01759 7.45207 6 8C6.01759 8.54793 6.23801 9.06605 6.61292 9.44077C6.98783 9.81549 7.48665 10.0162 8 9.99897C8.51335 10.0162 9.01217 9.81549 9.38708 9.44077C9.76199 9.06605 9.98241 8.54793 10 8C9.98241 7.45207 9.76199 6.93395 9.38708 6.55923C9.01217 6.18451 8.51335 5.98377 8 6.00103ZM8 8.99949C7.73537 9.0149 7.47565 8.91881 7.27673 8.73189C7.0778 8.54496 6.95557 8.28215 6.93633 8C6.95557 7.71785 7.0778 7.45504 7.27673 7.26811C7.47565 7.08119 7.73537 6.9851 8 7.00051C8.26463 6.9851 8.52435 7.08119 8.72327 7.26811C8.9222 7.45504 9.04443 7.71785 9.06367 8C9.04443 8.28215 8.9222 8.54496 8.72327 8.73189C8.52435 8.91881 8.26463 9.0149 8 8.99949Z" fill="#696E82"></path>
    <path d="M8 8.99949C7.73537 9.0149 7.47565 8.91881 7.27673 8.73189C7.0778 8.54496 6.95557 8.28215 6.93633 8C6.95557 7.71785 7.0778 7.45504 7.27673 7.26811C7.47565 7.08119 7.73537 6.9851 8 7.00051C8.26463 6.9851 8.52435 7.08119 8.72327 7.26811C8.9222 7.45504 9.04443 7.71785 9.06367 8C9.04443 8.28215 8.9222 8.54496 8.72327 8.73189C8.52435 8.91881 8.26463 9.0149 8 8.99949Z" fill="#696E82"></path>
    <path d="M8 3.00571C6.25167 2.94316 4.52794 3.39571 3.08613 4.29581C1.64431 5.19592 0.561736 6.4953 0 8C0.561736 9.5047 1.64431 10.8041 3.08613 11.7042C4.52794 12.6043 6.25167 13.0568 8 12.9943C9.74833 13.0568 11.4721 12.6043 12.9139 11.7042C14.3557 10.8041 15.4383 9.5047 16 8C15.4383 6.4953 14.3557 5.19592 12.9139 4.29581C11.4721 3.39571 9.74833 2.94316 8 3.00571ZM13.4 9.8161C12.7193 10.4946 11.8829 11.0292 10.9499 11.3822C10.0168 11.7352 9.00987 11.898 8 11.8592C6.99013 11.898 5.98317 11.7352 5.05015 11.3822C4.11713 11.0292 3.28075 10.4946 2.6 9.8161C2.06914 9.27857 1.63999 8.66489 1.33 8C1.63999 7.33511 2.06914 6.72143 2.6 6.1839C3.28075 5.50543 4.11713 4.97085 5.05015 4.61783C5.98317 4.26482 6.99013 4.10197 8 4.14078C9.00987 4.10197 10.0168 4.26482 10.9499 4.61783C11.8829 4.97085 12.7193 5.50543 13.4 6.1839C13.9309 6.72143 14.36 7.33511 14.67 8C14.36 8.66489 13.9309 9.27857 13.4 9.8161Z" fill="#696E82"></path>
  </symbol>
  <symbol viewbox="0 0 32 32" fill="none" id="icon-geo">
    <g clip-path="url(#clip0_10_476)">
    <path d="M24.332 17.88C23.284 20.004 21.864 22.12 20.412 24.02C19.0346 25.8112 17.5618 27.527 16 29.16C14.4382 27.5271 12.9654 25.8113 11.588 24.02C10.136 22.12 8.716 20.004 7.668 17.88C6.608 15.734 6 13.724 6 12C6 9.34784 7.05357 6.8043 8.92893 4.92893C10.8043 3.05357 13.3478 2 16 2C18.6522 2 21.1957 3.05357 23.0711 4.92893C24.9464 6.8043 26 9.34784 26 12C26 13.724 25.39 15.734 24.332 17.88ZM16 32C16 32 28 20.628 28 12C28 8.8174 26.7357 5.76515 24.4853 3.51472C22.2348 1.26428 19.1826 0 16 0C12.8174 0 9.76515 1.26428 7.51472 3.51472C5.26428 5.76515 4 8.8174 4 12C4 20.628 16 32 16 32Z" fill="white"></path>
    <path d="M16 16C14.9391 16 13.9217 15.5786 13.1716 14.8284C12.4214 14.0783 12 13.0609 12 12C12 10.9391 12.4214 9.92172 13.1716 9.17157C13.9217 8.42143 14.9391 8 16 8C17.0609 8 18.0783 8.42143 18.8284 9.17157C19.5786 9.92172 20 10.9391 20 12C20 13.0609 19.5786 14.0783 18.8284 14.8284C18.0783 15.5786 17.0609 16 16 16ZM16 18C17.5913 18 19.1174 17.3679 20.2426 16.2426C21.3679 15.1174 22 13.5913 22 12C22 10.4087 21.3679 8.88258 20.2426 7.75736C19.1174 6.63214 17.5913 6 16 6C14.4087 6 12.8826 6.63214 11.7574 7.75736C10.6321 8.88258 10 10.4087 10 12C10 13.5913 10.6321 15.1174 11.7574 16.2426C12.8826 17.3679 14.4087 18 16 18Z" fill="white"></path>
    </g>
    <defs>
    <clippath id="clip0_10_476">
    <rect width="32" height="32" fill="white"></rect>
    </clippath>
    </defs>
  </symbol>
  <symbol viewbox="0 0 16 14" fill="none" id="icon-link">
    <path fill-rule="evenodd" clip-rule="evenodd" d="M9.01817 1.2197C9.68802 0.581776 10.5965 0.223389 11.5438 0.223389C12.491 0.223389 13.3995 0.581776 14.0694 1.2197C14.7392 1.85764 15.1155 2.72286 15.1155 3.62504C15.1155 4.52721 14.7392 5.39243 14.0694 6.03035L10.922 9.0278C10.5927 9.34715 10.1999 9.60095 9.76661 9.77435C9.33191 9.94835 8.86524 10.0379 8.39376 10.0379C7.92228 10.0379 7.45561 9.94835 7.02091 9.77435C6.58629 9.60043 6.19246 9.34565 5.86251 9.02495C5.55813 8.72908 5.56322 8.25418 5.87388 7.9643C6.18454 7.67443 6.68315 7.6793 6.98752 7.97518C7.17085 8.1533 7.38962 8.2949 7.63107 8.3915C7.87251 8.48818 8.13184 8.5379 8.39376 8.5379C8.65568 8.5379 8.91501 8.48818 9.15645 8.3915C9.3979 8.2949 9.61667 8.1533 9.8 7.97518L9.80567 7.9697L12.9557 4.9697C13.3301 4.61308 13.5405 4.12939 13.5405 3.62504C13.5405 3.12069 13.3301 2.63699 12.9557 2.28037C12.5812 1.92374 12.0734 1.72339 11.5438 1.72339C11.0142 1.72339 10.5063 1.92374 10.1319 2.28037L9.7381 2.65537C9.43058 2.94826 8.93194 2.94826 8.62442 2.65537C8.3169 2.36247 8.3169 1.8876 8.62442 1.5947L9.01817 1.2197Z" fill="white"></path>
    <path fill-rule="evenodd" clip-rule="evenodd" d="M6.23343 4.22564C6.6681 4.05169 7.13478 3.9621 7.60625 3.9621C8.07773 3.9621 8.5444 4.05169 8.9791 4.22564C9.41372 4.39958 9.80755 4.65437 10.1375 4.97509C10.4419 5.27096 10.4368 5.74578 10.1262 6.03573C9.8155 6.3256 9.31686 6.32073 9.01249 6.02485C8.82916 5.84673 8.61039 5.70513 8.36895 5.60853C8.1275 5.51185 7.86817 5.4621 7.60625 5.4621C7.34433 5.4621 7.08501 5.51185 6.84356 5.60853C6.60211 5.70513 6.38331 5.84673 6.2 6.02485L6.19437 6.03033L3.04435 9.03033C2.66989 9.38695 2.45952 9.87063 2.45952 10.375C2.45952 10.8793 2.66989 11.3631 3.04435 11.7197C3.41881 12.0763 3.92668 12.2766 4.45625 12.2766C4.98582 12.2766 5.4937 12.0763 5.86815 11.7197L6.2619 11.3447C6.56943 11.0517 7.06807 11.0517 7.37559 11.3447C7.68311 11.6376 7.68311 12.1125 7.37559 12.4053L6.98184 12.7803C6.31202 13.4183 5.40354 13.7766 4.45625 13.7766C3.50897 13.7766 2.60048 13.4183 1.93065 12.7803C1.26083 12.1424 0.884521 11.2772 0.884521 10.375C0.884521 9.47283 1.26083 8.60755 1.93065 7.96968L5.07797 4.97221C5.40732 4.65284 5.80009 4.39905 6.23343 4.22564Z" fill="white"></path>
  </symbol>
  <symbol viewbox="0 0 60 58" fill="none" id="icon-logo">
    <path d="M26.9 20.75C27.2 21.325 27 22.025 26.425 22.35C25.85 22.65 25.125 22.45 24.825 21.875C24.5 21.3 24.725 20.575 25.3 20.275C25.85 19.95 26.575 20.175 26.9 20.75C26.875 20.75 26.875 20.75 26.9 20.75ZM21.075 29.95C20.75 30.125 20.625 30.55 20.8 30.9C20.975 31.225 21.4 31.35 21.725 31.175C21.725 31.175 21.725 31.175 21.75 31.175C22.075 31 22.225 30.6 22.05 30.25V30.225C21.825 29.9 21.4 29.775 21.075 29.95ZM20.95 27.125C20.55 27.35 20.425 27.825 20.625 28.225C20.85 28.625 21.325 28.775 21.725 28.55C22.125 28.325 22.275 27.85 22.05 27.45C21.85 27.05 21.35 26.9 20.95 27.125ZM21.7 24.4C21.25 24.65 21.075 25.2 21.325 25.65C21.575 26.1 22.125 26.275 22.575 26.025C23.025 25.775 23.2 25.225 22.95 24.775C22.7 24.325 22.125 24.15 21.7 24.4ZM23.175 22.05C22.675 22.3 22.5 22.95 22.75 23.45C22.75 23.45 22.75 23.45 22.75 23.475C23.025 23.975 23.65 24.175 24.15 23.9C24.65 23.625 24.85 23 24.575 22.5C24.325 21.975 23.7 21.775 23.175 22.05C23.2 22.05 23.2 22.05 23.175 22.05ZM22.05 32.65C21.775 32.8 21.675 33.15 21.825 33.425C21.975 33.7 22.325 33.8 22.6 33.65C22.875 33.5 22.975 33.15 22.825 32.85C22.675 32.6 22.325 32.5 22.05 32.65ZM35.425 23C35.6 23.325 36.025 23.45 36.375 23.275C36.7 23.1 36.825 22.675 36.65 22.325C36.475 22 36.05 21.875 35.725 22.05C35.375 22.225 35.25 22.65 35.425 23ZM33.075 21.5C33.275 21.9 33.775 22.025 34.175 21.825C34.575 21.6 34.725 21.125 34.5 20.725C34.3 20.325 33.8 20.175 33.4 20.4C33.025 20.6 32.875 21.1 33.075 21.5ZM30.35 20.775C30.575 21.225 31.15 21.375 31.575 21.15C32.025 20.9 32.2 20.35 31.95 19.9C31.7 19.45 31.15 19.275 30.725 19.525C30.275 19.75 30.125 20.325 30.35 20.775ZM27.525 20.875C27.8 21.375 28.425 21.575 28.925 21.3C29.425 21.025 29.625 20.4 29.35 19.875C29.075 19.375 28.425 19.2 27.925 19.5C27.45 19.8 27.275 20.4 27.525 20.875ZM37.2 25.125C37.35 25.4 37.7 25.5 37.975 25.35C38.25 25.2 38.35 24.875 38.225 24.575C38.075 24.3 37.725 24.175 37.45 24.325C37.15 24.475 37.025 24.85 37.2 25.125ZM35.2 36.125C34.9 35.55 34.2 35.325 33.625 35.625C33.625 35.625 33.625 35.625 33.6 35.625C33.025 35.925 32.825 36.625 33.125 37.2C33.125 37.2 33.125 37.2 33.125 37.225C33.425 37.8 34.15 38 34.725 37.7C35.3 37.4 35.5 36.7 35.2 36.125ZM24.575 35C24.4 34.675 23.975 34.55 23.65 34.725C23.325 34.9 23.2 35.325 23.375 35.65C23.55 35.975 23.95 36.1 24.3 35.925C24.3 35.925 24.3 35.925 24.325 35.925C24.625 35.75 24.75 35.325 24.575 35ZM26.925 36.475C26.7 36.075 26.225 35.95 25.825 36.15C25.425 36.35 25.275 36.825 25.5 37.225C25.5 37.225 25.5 37.225 25.5 37.25C25.7 37.65 26.2 37.8 26.6 37.575C27 37.375 27.15 36.875 26.925 36.475ZM29.65 37.225C29.425 36.775 28.85 36.625 28.4 36.85C27.95 37.1 27.8 37.65 28.025 38.1C28.275 38.55 28.825 38.725 29.275 38.475C29.725 38.225 29.9 37.675 29.65 37.225ZM32.5 37.1C32.225 36.6 31.6 36.4 31.1 36.675C30.6 36.95 30.425 37.575 30.7 38.075C30.95 38.575 31.575 38.775 32.075 38.5C32.075 38.5 32.1 38.5 32.1 38.475C32.575 38.25 32.75 37.6 32.5 37.1ZM38.925 28.05C39.275 27.85 39.4 27.425 39.225 27.1C39.05 26.775 38.625 26.65 38.3 26.825C37.975 27 37.825 27.425 38 27.75C38 27.75 38 27.75 38 27.775C38.175 28.075 38.6 28.2 38.925 28.05ZM39.05 30.875C39.45 30.65 39.575 30.175 39.375 29.775C39.175 29.375 38.675 29.225 38.3 29.45C37.9 29.675 37.75 30.15 37.975 30.55C38.175 30.925 38.675 31.075 39.05 30.875ZM38.325 33.6C38.775 33.35 38.95 32.8 38.7 32.35C38.45 31.9 37.9 31.725 37.45 31.975C37 32.225 36.825 32.775 37.075 33.225C37.325 33.65 37.875 33.825 38.325 33.6ZM36.825 35.925C37.325 35.675 37.525 35.025 37.25 34.525C36.975 34.025 36.35 33.825 35.85 34.1C35.35 34.375 35.15 35 35.425 35.5C35.7 36.025 36.3 36.2 36.825 35.925C36.825 35.95 36.825 35.95 36.825 35.925ZM34.825 17.925C34.6 18.725 33.75 19.175 32.95 18.95C32.15 18.725 31.7 17.875 31.925 17.075C31.925 17.075 31.925 17.075 31.925 17.05C32.175 16.25 33 15.8 33.8 16.025C34.625 16.3 35.075 17.125 34.825 17.925ZM20.325 21.5C19.925 21.4 19.5 21.625 19.375 22.025C19.275 22.425 19.525 22.825 19.925 22.925C20.3 23.025 20.7 22.8 20.825 22.425C20.95 22.05 20.7 21.625 20.325 21.5ZM22.95 18.625C22.45 18.475 21.95 18.75 21.8 19.25C21.65 19.725 21.925 20.25 22.425 20.4C22.925 20.55 23.425 20.25 23.575 19.775C23.7 19.275 23.425 18.775 22.95 18.625ZM26.3 16.575C25.675 16.4 25.025 16.75 24.85 17.375C24.675 18 25.025 18.65 25.65 18.825C26.275 19 26.925 18.65 27.1 18.05C27.275 17.425 26.925 16.775 26.3 16.575ZM30.025 15.75C29.325 15.55 28.6 15.925 28.375 16.625C28.175 17.325 28.575 18.05 29.25 18.25C29.95 18.45 30.675 18.05 30.875 17.35C31.125 16.7 30.75 15.95 30.025 15.75C30.05 15.75 30.05 15.75 30.025 15.75ZM18.65 25.075C18.35 25 18.05 25.15 17.975 25.45C17.875 25.75 18.05 26.05 18.35 26.15C18.65 26.225 18.95 26.075 19.05 25.775C19.125 25.475 18.95 25.175 18.65 25.075ZM41.275 28.45C41.15 28.85 41.375 29.25 41.775 29.375C42.175 29.5 42.575 29.275 42.7 28.875C42.825 28.475 42.6 28.075 42.2 27.95C41.8 27.825 41.4 28.05 41.275 28.45ZM40.4 24.7C40.25 25.2 40.525 25.7 41.025 25.85C41.525 26 42.025 25.725 42.175 25.225C42.325 24.725 42.05 24.225 41.55 24.075C41.075 23.95 40.55 24.225 40.4 24.7ZM38.375 21.35C38.2 21.975 38.55 22.625 39.175 22.8C39.8 22.975 40.45 22.625 40.625 22C40.8 21.375 40.45 20.725 39.85 20.55C39.2 20.375 38.55 20.725 38.375 21.35ZM35.5 18.725C35.3 19.425 35.7 20.15 36.4 20.35C37.1 20.55 37.825 20.15 38.025 19.45C38.225 18.75 37.825 18.025 37.15 17.825C36.45 17.625 35.725 18.025 35.5 18.725ZM40.975 32.225C40.9 32.525 41.05 32.825 41.35 32.925C41.65 33.025 41.95 32.85 42.05 32.55C42.15 32.25 41.975 31.95 41.675 31.85C41.375 31.75 41.05 31.925 40.975 32.225ZM28.075 40.925C28.325 40.125 27.85 39.275 27.05 39.05C26.25 38.825 25.4 39.275 25.175 40.075C24.925 40.875 25.4 41.725 26.2 41.95C27 42.2 27.85 41.725 28.075 40.925ZM18.725 29.55C18.85 29.15 18.625 28.75 18.225 28.625C17.825 28.5 17.425 28.75 17.3 29.125C17.175 29.525 17.4 29.925 17.8 30.05C18.2 30.175 18.6 29.95 18.725 29.55ZM19.6 33.275C19.75 32.8 19.475 32.275 18.975 32.15C18.5 32 17.975 32.275 17.825 32.75V32.775C17.675 33.275 17.975 33.775 18.45 33.925C18.95 34.05 19.45 33.775 19.6 33.275ZM21.625 36.65C21.8 36.025 21.45 35.375 20.825 35.175C20.2 35 19.55 35.35 19.375 35.975C19.2 36.6 19.55 37.25 20.15 37.425C20.8 37.625 21.45 37.275 21.625 36.65ZM24.5 39.275C24.7 38.575 24.3 37.85 23.6 37.625C22.9 37.425 22.175 37.825 21.975 38.5C21.975 38.5 21.975 38.5 21.975 38.525C21.775 39.225 22.175 39.95 22.875 40.15C23.55 40.375 24.3 39.975 24.5 39.275ZM39.7 36.5C40.1 36.625 40.525 36.4 40.625 36C40.75 35.6 40.525 35.2 40.125 35.075C39.725 34.95 39.325 35.2 39.2 35.575C39.075 35.95 39.3 36.375 39.7 36.5ZM37.075 39.375C37.55 39.525 38.075 39.25 38.225 38.75C38.375 38.275 38.1 37.75 37.625 37.6C37.125 37.45 36.625 37.725 36.475 38.225C36.3 38.725 36.575 39.225 37.075 39.375ZM33.7 41.425C34.325 41.6 34.975 41.25 35.15 40.625C35.325 40 34.975 39.35 34.35 39.175C33.725 39 33.075 39.35 32.9 39.975C32.725 40.575 33.075 41.225 33.7 41.425ZM29.975 42.25C30.675 42.45 31.4 42.075 31.6 41.375C31.6 41.375 31.6 41.375 31.6 41.35C31.8 40.65 31.4 39.925 30.7 39.7C30 39.5 29.275 39.9 29.05 40.6C28.875 41.325 29.275 42.05 29.975 42.25ZM42.375 18.7C41.625 19.475 40.4 19.525 39.625 18.775C38.85 18.05 38.8 16.825 39.55 16.025C40.275 15.25 41.5 15.2 42.3 15.925C43.075 16.675 43.125 17.925 42.375 18.7ZM22.975 14.275C22.6 13.925 22 13.925 21.625 14.325C21.25 14.7 21.275 15.3 21.65 15.675C22.025 16.025 22.65 16.025 23 15.625C23.375 15.25 23.375 14.65 22.975 14.275ZM27.85 12.425C27.375 11.975 26.625 12 26.175 12.475C25.725 12.95 25.75 13.7 26.225 14.15C26.7 14.6 27.45 14.575 27.9 14.1C28.35 13.625 28.325 12.875 27.85 12.425ZM33.05 12.05C32.45 11.475 31.5 11.5 30.925 12.1C30.375 12.725 30.425 13.675 31.05 14.225C31.65 14.75 32.55 14.725 33.125 14.175C33.7 13.575 33.65 12.625 33.05 12.05ZM38 13.325C37.325 12.675 36.25 12.7 35.6 13.4C34.95 14.075 35 15.15 35.675 15.8C36.35 16.45 37.425 16.4 38.075 15.725C38.7 15.025 38.675 13.95 38 13.325ZM18.85 17.525C18.55 17.25 18.1 17.275 17.85 17.55C17.575 17.825 17.6 18.275 17.875 18.55C18.15 18.825 18.6 18.8 18.875 18.525C19.15 18.25 19.15 17.8 18.85 17.525ZM43.75 35.175C43.375 35.55 43.4 36.175 43.8 36.525C44.2 36.875 44.8 36.85 45.15 36.45C45.5 36.075 45.475 35.475 45.1 35.125C44.725 34.775 44.125 34.775 43.75 35.175ZM45 30.225C44.55 30.7 44.575 31.45 45.05 31.9C45.525 32.35 46.275 32.325 46.725 31.85C47.175 31.375 47.15 30.625 46.675 30.175C46.175 29.725 45.45 29.75 45 30.225ZM44.6 25C44.025 25.6 44.05 26.55 44.65 27.125C45.25 27.7 46.2 27.675 46.775 27.075C47.325 26.45 47.275 25.5 46.675 24.95C46.1 24.375 45.175 24.425 44.6 25ZM42.8 20.15C42.15 20.825 42.2 21.9 42.875 22.55C43.55 23.2 44.625 23.15 45.275 22.475C45.925 21.8 45.875 20.725 45.2 20.075C44.5 19.45 43.425 19.475 42.8 20.15ZM41.125 39.475C40.85 39.775 40.875 40.225 41.15 40.475C41.425 40.75 41.875 40.725 42.15 40.45C42.425 40.175 42.4 39.725 42.125 39.45C42.125 39.45 42.125 39.45 42.1 39.425C41.85 39.175 41.4 39.175 41.125 39.475ZM20.45 41.975C21.175 41.175 21.125 39.95 20.35 39.225C19.575 38.5 18.35 38.55 17.625 39.3C16.9 40.1 16.975 41.325 17.775 42.05C18.55 42.725 19.725 42.7 20.45 41.975ZM16.25 22.825C16.625 22.45 16.6 21.825 16.2 21.475C15.825 21.1 15.225 21.125 14.85 21.5C14.475 21.9 14.5 22.5 14.9 22.875C15.275 23.225 15.875 23.2 16.25 22.825ZM15.025 27.775C15.475 27.3 15.45 26.55 14.975 26.1C14.475 25.675 13.75 25.7 13.3 26.2C12.875 26.675 12.9 27.375 13.35 27.825C13.825 28.275 14.575 28.25 15.025 27.775ZM15.4 33C15.975 32.4 15.95 31.45 15.325 30.875C14.725 30.3 13.775 30.325 13.2 30.95C12.625 31.55 12.65 32.5 13.275 33.075C13.875 33.625 14.825 33.6 15.4 33ZM17.225 37.85C17.875 37.175 17.825 36.1 17.15 35.45C16.475 34.8 15.4 34.85 14.775 35.525C14.125 36.2 14.15 37.275 14.825 37.925C15.5 38.55 16.575 38.525 17.225 37.85ZM37.025 43.725C37.4 44.1 38.025 44.075 38.375 43.675C38.725 43.3 38.725 42.7 38.325 42.325C37.95 41.95 37.35 41.975 36.975 42.35C36.625 42.75 36.65 43.35 37.025 43.725ZM32.175 45.575C32.65 46.025 33.4 46 33.85 45.525C34.3 45.05 34.275 44.3 33.8 43.85C33.325 43.4 32.575 43.425 32.125 43.9C31.675 44.375 31.7 45.125 32.175 45.575ZM26.95 45.95C27.55 46.525 28.5 46.5 29.075 45.9C29.65 45.3 29.625 44.35 29.025 43.775C28.425 43.2 27.475 43.225 26.9 43.825C26.3 44.425 26.35 45.375 26.95 45.95ZM22.025 44.675C22.7 45.325 23.775 45.275 24.4 44.6C25.05 43.925 25 42.85 24.325 42.2C23.65 41.55 22.575 41.6 21.925 42.275C21.3 42.975 21.35 44.05 22.025 44.675ZM50.275 22.825C49.075 23.35 47.7 22.775 47.175 21.6C46.675 20.4 47.225 19 48.4 18.5C49.6 18 50.975 18.6 51.475 19.8C51.95 20.95 51.425 22.3 50.275 22.825ZM33.725 7.825C33.575 7.125 32.9 6.675 32.2 6.8C31.5 6.925 31.05 7.625 31.175 8.325C31.35 9.025 32.05 9.45 32.75 9.3C33.4 9.15 33.825 8.5 33.725 7.825ZM39.3 9.025C39.075 8.175 38.225 7.675 37.4 7.875C36.55 8.075 36.05 8.95 36.25 9.775C36.475 10.625 37.325 11.125 38.175 10.9C39.025 10.725 39.525 9.875 39.3 9.025ZM44.45 11.525C44.125 10.5 43.025 9.925 42 10.225C40.975 10.55 40.375 11.65 40.7 12.675C41.05 13.7 42.175 14.25 43.2 13.9C44.2 13.575 44.75 12.525 44.45 11.525ZM48.575 15.175C48.15 14.05 46.925 13.475 45.8 13.9C44.675 14.3 44.1 15.55 44.525 16.675C44.95 17.8 46.175 18.375 47.3 17.95C48.4 17.55 48.975 16.3 48.575 15.175ZM22.525 9.275C22.325 8.8 21.75 8.575 21.275 8.775C20.8 9 20.575 9.55 20.8 10.025C21 10.5 21.575 10.725 22.05 10.525C22.525 10.325 22.75 9.75 22.525 9.275ZM46.15 40.525C45.575 40.95 45.45 41.775 45.875 42.35C46.3 42.9 47.075 43.05 47.65 42.65C48.225 42.225 48.375 41.425 47.95 40.85C47.55 40.25 46.725 40.1 46.15 40.525ZM48.725 35.45C47.975 35.9 47.75 36.875 48.2 37.625C48.65 38.375 49.625 38.6 50.375 38.15C50.4 38.15 50.4 38.125 50.425 38.125C51.15 37.65 51.35 36.675 50.875 35.95C50.4 35.225 49.45 35 48.725 35.45ZM49.95 29.725C49 30.25 48.675 31.45 49.2 32.4C49.725 33.35 50.925 33.675 51.875 33.15C52.825 32.625 53.15 31.425 52.625 30.475C52.1 29.55 50.9 29.2 49.95 29.725ZM49.875 24C48.8 24.525 48.375 25.825 48.9 26.9C49.425 27.975 50.725 28.4 51.8 27.875C52.875 27.35 53.3 26.05 52.775 24.975C52.25 23.925 50.95 23.475 49.875 24ZM37.975 47.475C37.5 47.675 37.275 48.25 37.475 48.725C37.675 49.2 38.25 49.425 38.725 49.225C39.2 49.025 39.425 48.45 39.225 47.975C39 47.5 38.45 47.275 37.975 47.475ZM11.6 39.5C12.8 38.975 13.35 37.6 12.825 36.4C12.3 35.2 10.925 34.65 9.725 35.175C8.525 35.675 7.975 37.075 8.5 38.275C9 39.475 10.4 40.025 11.6 39.5ZM13.85 17.475C14.45 17.075 14.575 16.25 14.15 15.675C13.75 15.075 12.95 14.95 12.35 15.35C11.775 15.775 11.625 16.575 12.025 17.15C12.45 17.75 13.275 17.9 13.85 17.475ZM11.275 22.55C12 22.075 12.225 21.1 11.75 20.375C11.3 19.65 10.325 19.425 9.575 19.875C8.825 20.325 8.625 21.325 9.1 22.05C9.55 22.8 10.525 23.025 11.275 22.55ZM10.05 28.275C11 27.775 11.375 26.575 10.875 25.625C10.375 24.675 9.175 24.3 8.225 24.8C8.2 24.825 8.15 24.825 8.125 24.85C7.175 25.375 6.85 26.575 7.375 27.525C7.9 28.45 9.1 28.8 10.05 28.275ZM10.125 34C11.2 33.475 11.625 32.175 11.1 31.1C10.575 30.025 9.275 29.6 8.2 30.125C8.2 30.125 8.2 30.125 8.175 30.125C7.1 30.65 6.675 31.95 7.2 33.025C7.75 34.075 9.05 34.525 10.125 34ZM26.275 50.175C26.425 50.875 27.1 51.35 27.8 51.2C28.5 51.05 28.95 50.375 28.825 49.675C28.675 48.975 28 48.525 27.3 48.65C26.6 48.8 26.15 49.475 26.275 50.175ZM20.7 48.975C20.9 49.825 21.775 50.325 22.6 50.125C23.45 49.9 23.95 49.05 23.725 48.2C23.5 47.35 22.65 46.85 21.8 47.075C21 47.275 20.475 48.125 20.7 48.975ZM15.55 46.475C15.875 47.5 16.95 48.075 18 47.775C18 47.775 18 47.775 18.025 47.775C19.05 47.45 19.65 46.35 19.325 45.325C19 44.3 17.9 43.7 16.85 44.025C15.8 44.35 15.225 45.45 15.55 46.475ZM11.45 42.825C11.85 43.95 13.1 44.525 14.225 44.1C14.225 44.1 14.225 44.1 14.25 44.1C15.375 43.675 15.9 42.4 15.475 41.3C15.05 40.225 13.85 39.675 12.75 40.05C11.6 40.45 11.025 41.7 11.45 42.825ZM42.425 44.725C42 45.075 41.95 45.725 42.3 46.15C42.65 46.55 43.25 46.625 43.675 46.3C44.125 45.975 44.225 45.325 43.875 44.875C43.525 44.425 42.9 44.325 42.45 44.675C42.475 44.7 42.45 44.725 42.425 44.725ZM32.9 48.825C32.35 48.9 31.95 49.425 32.05 49.975C32.125 50.525 32.65 50.925 33.2 50.825C33.75 50.75 34.15 50.225 34.05 49.675C33.975 49.15 33.475 48.75 32.9 48.825ZM27.95 8C27.875 7.45 27.35 7.05 26.8 7.15C26.25 7.225 25.85 7.75 25.95 8.3C26.025 8.85 26.55 9.25 27.1 9.15C27.65 9.075 28.05 8.575 27.95 8ZM17.725 11.85C17.375 11.4 16.75 11.325 16.3 11.675C15.85 12.025 15.775 12.675 16.125 13.1C16.475 13.55 17.125 13.625 17.55 13.275C18 12.925 18.075 12.275 17.725 11.85ZM56.975 32.025C55.3 32.025 53.95 30.675 53.95 29C53.95 27.325 55.3 25.975 56.95 25.975C56.95 25.975 56.95 25.975 56.975 25.975C58.65 25.975 60 27.325 60 28.975C60 30.675 58.65 32.025 56.975 32.025ZM45.125 5.975C45.325 5.075 44.75 4.2 43.85 4C42.95 3.8 42.075 4.375 41.875 5.275C41.675 6.175 42.25 7.05 43.15 7.25C44.05 7.45 44.925 6.875 45.125 5.975ZM51.075 10.225C51.25 9.125 50.5 8.1 49.4 7.925C48.3 7.775 47.275 8.55 47.125 9.65C46.975 10.725 47.7 11.725 48.775 11.9C49.875 12.1 50.9 11.35 51.075 10.225ZM58.85 22.15C58.925 20.625 57.75 19.325 56.225 19.225C54.7 19.15 53.4 20.3 53.3 21.825C53.2 23.35 54.375 24.675 55.9 24.775C57.425 24.875 58.75 23.7 58.85 22.175C58.85 22.2 58.85 22.175 58.85 22.15ZM31.225 2.025C31.225 1.35 30.675 0.825001 30 0.825001C29.325 0.850001 28.8 1.4 28.825 2.075C28.85 2.7 29.35 3.225 30 3.25C30.675 3.225 31.225 2.7 31.225 2.025ZM43.15 50.75C42.25 50.95 41.675 51.825 41.875 52.725C42.075 53.625 42.95 54.2 43.85 54C44.75 53.8 45.325 52.925 45.125 52.025C44.925 51.125 44.05 50.55 43.15 50.75ZM48.775 46.075C47.675 46.25 46.9 47.275 47.075 48.375C47.25 49.475 48.275 50.25 49.375 50.075C49.4 50.075 49.4 50.075 49.425 50.075C50.525 49.9 51.275 48.85 51.075 47.75C50.875 46.675 49.85 45.925 48.775 46.075ZM53.1 39.975C51.725 40.125 50.725 41.35 50.85 42.75C50.975 44.15 52.225 45.125 53.625 45C55 44.85 56 43.625 55.875 42.25C55.725 40.85 54.475 39.85 53.1 39.975ZM55.925 33.2C54.4 33.275 53.225 34.6 53.3 36.125C53.375 37.65 54.675 38.825 56.2 38.75C56.2 38.75 56.2 38.75 56.225 38.75C57.75 38.675 58.925 37.375 58.85 35.85C58.75 34.3 57.45 33.125 55.925 33.2ZM30 54.775C29.325 54.8 28.8 55.35 28.825 56.025C28.85 56.675 29.35 57.2 30 57.2C30.675 57.2 31.2 56.65 31.2 56C31.2 55.35 30.675 54.775 30 54.775ZM3.025 32.025C4.7 32.025 6.05 30.675 6.05 29C6.05 27.325 4.7 25.975 3.05 25.975C1.35 25.975 0 27.325 0 29C0 30.675 1.35 32.025 3.025 32.025ZM16.85 7.25C17.75 7.075 18.325 6.175 18.15 5.275C17.95 4.375 17.075 3.8 16.175 4C15.25 4.2 14.675 5.075 14.875 5.975C15.075 6.875 15.95 7.45 16.85 7.25ZM11.25 11.925C12.35 11.75 13.1 10.7 12.925 9.6C12.75 8.5 11.7 7.75 10.6 7.925C9.5 8.1 8.75 9.125 8.925 10.225C9.1 11.325 10.15 12.1 11.25 11.925ZM6.9 18C8.275 17.825 9.25 16.575 9.075 15.2C8.9 13.85 7.7 12.9 6.375 13C5 13.15 4 14.375 4.125 15.75C4.275 17.15 5.525 18.15 6.9 18ZM54.275 18C55.65 17.825 56.625 16.55 56.45 15.175C56.275 13.85 55.1 12.875 53.75 13C52.375 13.15 51.375 14.375 51.5 15.75C51.65 17.15 52.9 18.15 54.275 18ZM4.075 24.775C5.6 24.7 6.775 23.4 6.7 21.85C6.625 20.35 5.325 19.175 3.8 19.25C3.8 19.25 3.8 19.25 3.775 19.25C2.25 19.325 1.075 20.625 1.15 22.15C1.25 23.7 2.55 24.875 4.075 24.775ZM14.875 52.025C14.675 52.925 15.25 53.8 16.15 54C17.05 54.2 17.925 53.625 18.125 52.725C18.325 51.825 17.75 50.95 16.85 50.75C15.95 50.55 15.075 51.125 14.875 52.025ZM8.925 47.75C8.75 48.85 9.5 49.875 10.6 50.05C11.7 50.225 12.725 49.475 12.9 48.375C13.075 47.275 12.325 46.25 11.225 46.075C10.15 45.9 9.1 46.65 8.925 47.75ZM4.125 42.225C3.975 43.6 4.975 44.85 6.35 45C7.725 45.15 8.975 44.15 9.125 42.775C9.275 41.4 8.275 40.15 6.875 40C5.525 39.85 4.275 40.85 4.125 42.225ZM1.15 35.825C1.075 37.35 2.25 38.65 3.775 38.75C5.3 38.825 6.6 37.675 6.7 36.15C6.7 36.15 6.7 36.15 6.7 36.125C6.775 34.6 5.6 33.3 4.075 33.2C2.55 33.125 1.25 34.3 1.15 35.825ZM36.65 53.8C35.95 53.975 35.55 54.7 35.725 55.4C35.9 56.1 36.625 56.5 37.325 56.325C38.025 56.15 38.425 55.425 38.25 54.725C38.05 54.025 37.35 53.625 36.65 53.8ZM23.35 53.8C22.65 53.625 21.95 54.05 21.775 54.75C21.6 55.425 22 56.125 22.675 56.3C23.375 56.5 24.1 56.1 24.3 55.425C24.5 54.725 24.1 54 23.425 53.8C23.4 53.8 23.375 53.8 23.35 53.8ZM38.25 3.275C38.425 2.575 38.025 1.875 37.325 1.675C36.625 1.525 35.925 1.95 35.775 2.675C35.625 3.325 36 4 36.65 4.2C37.35 4.375 38.05 3.975 38.25 3.275ZM24.275 2.6C24.1 1.9 23.375 1.5 22.675 1.675C21.975 1.875 21.575 2.575 21.75 3.275C21.925 3.975 22.65 4.375 23.35 4.2C24.05 4 24.475 3.3 24.275 2.6Z" fill="white"></path>
  </symbol>
  <symbol viewbox="0 0 10 16" fill="none" id="icon-ok">
    <path d="M6.5993 11.5519L8.8105 13.6866C9.26349 14.1229 9.26349 14.8316 8.8105 15.2684C8.35799 15.7052 7.62455 15.7052 7.17251 15.2684L4.99846 13.1707L2.8263 15.2684C2.59981 15.4866 2.30303 15.5958 2.00624 15.5958C1.70993 15.5958 1.41362 15.4866 1.18713 15.2684C0.734616 14.8316 0.734616 14.1234 1.18666 13.6866L3.3981 11.5519C2.59295 11.3748 1.81643 11.0669 1.10122 10.6337C0.559953 10.3043 0.397361 9.61413 0.738402 9.0912C1.0785 8.56758 1.79371 8.40995 2.33592 8.73938C3.95522 9.72265 6.04123 9.72288 7.66147 8.73938C8.20368 8.40995 8.91866 8.56758 9.25947 9.0912C9.60051 9.61367 9.43744 10.3043 8.89618 10.6337C8.18096 11.0673 7.40445 11.3748 6.5993 11.5519Z" fill="white"></path>
    <path fill-rule="evenodd" clip-rule="evenodd" d="M1.03346 4.61832C1.03346 6.7233 2.80754 8.43556 4.98893 8.43556C7.17079 8.43556 8.94439 6.7233 8.94439 4.61832C8.94439 2.51265 7.17079 0.799927 4.98893 0.799927C2.80754 0.799927 1.03346 2.51265 1.03346 4.61832ZM6.62662 4.61791C6.62662 3.74613 5.892 3.03723 4.98886 3.03723C4.08644 3.03723 3.35111 3.74613 3.35111 4.61791C3.35111 5.48901 4.08644 6.19836 4.98886 6.19836C5.892 6.19836 6.62662 5.48901 6.62662 4.61791Z" fill="white"></path>
  </symbol>
  <symbol viewbox="0 0 28 28" fill="none" id="icon-search">
    <path d="M12.6667 6C16.3485 6 19.3333 8.98477 19.3333 12.6667M20.2117 20.2065L26 26M23.3333 12.6667C23.3333 18.5577 18.5577 23.3333 12.6667 23.3333C6.77563 23.3333 2 18.5577 2 12.6667C2 6.77563 6.77563 2 12.6667 2C18.5577 2 23.3333 6.77563 23.3333 12.6667Z" stroke="white" stroke-width="2.5" stroke-linecap="round" stroke-linejoin="round"></path>
  </symbol>
  <symbol viewbox="0 0 15 12" fill="none" id="icon-tg">
    <mask id="mask0_10_337" style="mask-type:luminance" maskUnits="userSpaceOnUse" x="0" y="0" width="15" height="12">
    <path fill-rule="evenodd" clip-rule="evenodd" d="M0.125 0.166687H14.825V11.8334H0.125V0.166687Z" fill="white"/>
    </mask>
    <g mask="url(#mask0_10_337)">
    <path fill-rule="evenodd" clip-rule="evenodd" d="M14.825 1.10405C14.7478 1.43027 14.6674 1.75583 14.5939 2.08282C14.1189 4.19736 13.6454 6.31222 13.1712 8.42694C12.9669 9.33769 12.7642 10.2488 12.5552 11.1585C12.528 11.2767 12.4796 11.3942 12.4199 11.5013C12.2602 11.7874 11.9971 11.8954 11.6733 11.7988C11.5257 11.7547 11.377 11.6903 11.2522 11.6042C10.1958 10.8751 9.14475 10.1388 8.092 9.40472C8.0539 9.37815 8.01483 9.35278 7.96938 9.32227C7.93445 9.3507 7.90143 9.37505 7.87132 9.40239C7.32782 9.89564 6.78425 10.3888 6.24167 10.8831C6.08002 11.0303 5.89606 11.1189 5.65429 11.1056C5.6743 10.8209 5.69266 10.5453 5.71325 10.2699C5.75637 9.69325 5.8006 9.11667 5.84452 8.54002C5.85145 8.44925 5.87632 8.35629 5.8638 8.26811C5.81651 7.93563 6.01275 7.7429 6.25246 7.53942C8.20128 5.88474 10.1407 4.22003 12.083 2.55828C12.1114 2.53393 12.1483 2.5134 12.1651 2.483C12.1959 2.42723 12.2146 2.3654 12.2383 2.30609C12.1728 2.28856 12.1003 2.24504 12.0431 2.25889C11.9252 2.28736 11.8071 2.33351 11.7038 2.39493C9.17226 3.90077 6.64257 5.40942 4.11314 6.91851C4.04209 6.9609 3.9811 6.98434 3.88989 6.95693C2.81678 6.63425 1.74127 6.31893 0.668244 5.99595C0.538425 5.95688 0.409218 5.89848 0.298146 5.82408C0.0893566 5.68424 0.0642192 5.47952 0.251009 5.31421C0.38783 5.19311 0.553499 5.08565 0.7264 5.02021C1.63047 4.67803 2.54069 4.35068 3.4492 4.01914C6.90052 2.75983 10.3518 1.50048 13.8042 0.243685C13.914 0.203696 14.0338 0.177377 14.1508 0.16881C14.4614 0.146137 14.6918 0.306202 14.7867 0.593708C14.7979 0.627573 14.8121 0.660563 14.825 0.693954V1.10405Z" fill="white"/>
    </g>
  </symbol>
  <symbol viewbox="0 0 16 16" fill="none" id="icon-vk">
    <path d="M15.6065 3.18217C15.5378 2.5609 15.2471 1.98095 14.7832 1.53928C14.3193 1.09762 13.7103 0.821028 13.0579 0.755752C9.69679 0.412552 6.30679 0.412552 2.94568 0.755752C2.29268 0.820293 1.68279 1.09656 1.21816 1.53829C0.753532 1.98002 0.462379 2.56038 0.393465 3.18217C0.0346165 6.38473 0.0346165 9.61456 0.393465 12.8171C0.463002 13.4382 0.753864 14.0178 1.2176 14.4595C1.68135 14.9011 2.28997 15.1782 2.9421 15.2444C6.30321 15.5876 9.69321 15.5876 13.0543 15.2444C13.7071 15.1789 14.3165 14.9022 14.781 14.4605C15.2455 14.0188 15.5368 13.4387 15.6065 12.8171C15.9654 9.61456 15.9654 6.38473 15.6065 3.18217ZM12.4503 10.6822C12.2212 10.7129 11.1008 10.6822 11.0426 10.6822C10.7523 10.6853 10.4724 10.579 10.2641 10.3864C10.0278 10.1691 9.81662 9.93047 9.58574 9.70462C9.5177 9.63529 9.44377 9.57144 9.3647 9.51371C9.18036 9.37905 8.9978 9.40973 8.91099 9.61683C8.84317 9.84063 8.79587 10.0696 8.7696 10.3012C8.75439 10.51 8.61479 10.6421 8.3678 10.6558C8.21477 10.6643 8.06175 10.6668 7.91051 10.6634C7.35928 10.6598 6.81678 10.5319 6.32746 10.2901C5.79797 10.0094 5.3366 9.62549 4.97349 9.16342C4.3766 8.43729 3.89963 7.63956 3.47366 6.81712C3.45129 6.77535 3.01459 5.89155 3.00385 5.84893C2.96447 5.71001 3.00385 5.57621 3.12466 5.52933C3.20162 5.50121 4.6406 5.52933 4.66476 5.52933C4.77178 5.52877 4.87623 5.56057 4.96307 5.62015C5.04991 5.67972 5.11466 5.76401 5.148 5.86087C5.414 6.50955 5.7782 7.11769 6.22902 7.66598C6.29214 7.73903 6.36598 7.80304 6.44827 7.85604C6.5655 7.93274 6.67646 7.90632 6.72479 7.77677C6.78212 7.59823 6.81579 7.41356 6.82501 7.22706C6.83307 6.85717 6.82501 6.61427 6.80354 6.24439C6.78922 6.00746 6.70152 5.80035 6.33462 5.73302C6.22186 5.71342 6.21202 5.62479 6.2845 5.53615C6.43574 5.35291 6.64246 5.32308 6.87423 5.31285C7.21966 5.29325 7.56508 5.30604 7.91051 5.31285H7.98568C8.13601 5.31163 8.28603 5.32592 8.43312 5.35547C8.52005 5.37264 8.59888 5.41595 8.658 5.47902C8.71713 5.54208 8.75343 5.62156 8.76155 5.70575C8.77932 5.79907 8.78681 5.8939 8.78392 5.98871C8.77497 6.39183 8.75439 6.79581 8.74991 7.19893C8.74575 7.35889 8.76107 7.51876 8.79555 7.67535C8.84477 7.89098 8.99959 7.94382 9.15351 7.78871C9.35298 7.58893 9.53579 7.37464 9.70028 7.1478C9.99165 6.73343 10.2319 6.28844 10.4162 5.82166C10.5164 5.58217 10.5952 5.52933 10.8636 5.52933H12.3903C12.4811 5.52781 12.5716 5.53931 12.6588 5.56342C12.6896 5.57115 12.7185 5.58485 12.7435 5.60369C12.7686 5.62253 12.7893 5.64608 12.8043 5.67288C12.8193 5.69969 12.8284 5.72916 12.8309 5.75945C12.8334 5.78974 12.8294 5.82021 12.819 5.84893C12.7438 6.16854 12.563 6.43956 12.3715 6.70121C12.061 7.11967 11.7335 7.52791 11.4158 7.94126C11.3754 7.99584 11.3386 8.05277 11.3057 8.11172C11.1858 8.31712 11.1947 8.43217 11.3684 8.60263C11.6458 8.8745 11.942 9.12848 12.2095 9.40802C12.4058 9.61141 12.5831 9.83071 12.7393 10.0634C12.9353 10.3532 12.8145 10.6293 12.4494 10.6788L12.4503 10.6822Z" fill="white"></path>
  </symbol>
  <symbol viewbox="0 0 17 9" fill="none" id="icon-vk-footer">
    <path fill-rule="evenodd" clip-rule="evenodd" d="M16.0729 0.983064C16.1885 0.654255 16.0729 0.415104 15.5607 0.415104H13.859C13.4294 0.415104 13.2312 0.624339 13.1155 0.848575C13.1155 0.848575 12.2399 2.76173 11.0173 4.00227C10.6207 4.361 10.439 4.48057 10.2243 4.48057C10.1086 4.48057 9.95992 4.361 9.95992 4.03219V0.968106C9.95992 0.579509 9.82774 0.400146 9.46424 0.400146H6.78777C6.52342 0.400146 6.35822 0.579509 6.35822 0.758872C6.35822 1.13256 6.9695 1.22221 7.03558 2.26848V4.54036C7.03558 5.03362 6.93648 5.12328 6.72168 5.12328C6.14343 5.12328 4.7391 3.19516 3.8965 0.998022C3.73126 0.564551 3.56606 0.400146 3.13652 0.400146H1.41824C0.922608 0.400146 0.839996 0.609425 0.839996 0.833617C0.839996 1.23717 1.41824 3.26991 3.533 5.9603C4.93737 7.79872 6.93648 8.78519 8.73733 8.78519C9.82774 8.78519 9.95992 8.561 9.95992 8.18736V6.79733C9.95992 6.3489 10.059 6.2742 10.406 6.2742C10.6538 6.2742 11.0999 6.39373 12.1077 7.27559C13.2642 8.32185 13.4625 8.80015 14.1068 8.80015H15.8085C16.3042 8.80015 16.5355 8.57595 16.4033 8.14248C16.2546 7.70906 15.6929 7.08131 14.9659 6.33394C14.5694 5.91547 13.9746 5.45213 13.7929 5.22789C13.5451 4.929 13.6112 4.80943 13.7929 4.54036C13.7764 4.54036 15.8581 1.87988 16.0729 0.983064Z" fill="white"/>
  </symbol>
  <symbol viewbox="0 0 14 10" fill="none" id="icon-yt">
    <path fill-rule="evenodd" clip-rule="evenodd" d="M12.0008 0.87464C12.5516 1.02577 12.9853 1.47108 13.1325 2.03658C13.4 3.06149 13.4 5.19997 13.4 5.19997C13.4 5.19997 13.4 7.33838 13.1325 8.36336C12.9853 8.92887 12.5516 9.37418 12.0008 9.52538C11.0027 9.79997 7.00001 9.79997 7.00001 9.79997C7.00001 9.79997 2.99732 9.79997 1.99913 9.52538C1.44837 9.37418 1.01462 8.92887 0.867424 8.36336C0.600006 7.33838 0.600006 5.19997 0.600006 5.19997C0.600006 5.19997 0.600006 3.06149 0.867424 2.03658C1.01462 1.47108 1.44837 1.02577 1.99913 0.87464C2.99732 0.599976 7.00001 0.599976 7.00001 0.599976C7.00001 0.599976 11.0027 0.599976 12.0008 0.87464ZM5.79998 3.40017V7.40017L8.99998 5.40025L5.79998 3.40017Z" fill="white"></path>
  </symbol>
  <symbol viewbox="0 0 32 18" fill="none" id="icon-burger">
    <path fill-rule="evenodd" clip-rule="evenodd" d="M0 1C0 0.447715 0.397969 0 0.888889 0H31.1111C31.602 0 32 0.447715 32 1C32 1.55228 31.602 2 31.1111 2H0.888889C0.397969 2 0 1.55228 0 1Z" fill="white"></path>
    <path fill-rule="evenodd" clip-rule="evenodd" d="M0 9C0 8.44772 0.397969 8 0.888889 8H31.1111C31.602 8 32 8.44772 32 9C32 9.55228 31.602 10 31.1111 10H0.888889C0.397969 10 0 9.55228 0 9Z" fill="white"></path>
    <path fill-rule="evenodd" clip-rule="evenodd" d="M0 17C0 16.4477 0.397969 16 0.888889 16H31.1111C31.602 16 32 16.4477 32 17C32 17.5523 31.602 18 31.1111 18H0.888889C0.397969 18 0 17.5523 0 17Z" fill="white"></path>
  </symbol>
</svg>